<svg width="200" height="56" viewBox="0 0 200 56" fill="none" xmlns="http://www.w3.org/2000/svg">
<rect width="56" height="56" rx="8" fill="white"/>
<path d="M36.5 22.5V27H40V29C39.8333 29.5 38.8 30.5 36 30.5C33 30.5 30.5 27 30.5 24.5C30.5 21.7528 32.5 18 36 18C39.5 18 41 19.3333 41.5 20L45 17C44.5 15.6667 42 13 36 13C28.5 13 25 19 25 24.5C25 30 28.5 36 36.5 36C41.5 36 45.5 32 45.5 30V22.5H36.5Z" fill="#0BA5EC"/>
<path d="M11 13V35.5H16.5V27.5H23V22.5H16.5V18.5H24L28 13H11Z" fill="#1570EF"/>
<path d="M20.3884 46.0994C19.8771 46.0994 19.4225 46.0118 19.0248 45.8366C18.6294 45.6615 18.3169 45.4176 18.0873 45.1051C17.8576 44.7926 17.7357 44.4316 17.7215 44.022H19.0567C19.0686 44.2185 19.1337 44.3902 19.2521 44.5369C19.3704 44.6813 19.5279 44.7938 19.7244 44.8743C19.9209 44.9548 20.141 44.995 20.3849 44.995C20.6453 44.995 20.8761 44.95 21.0773 44.8601C21.2786 44.7678 21.436 44.6399 21.5496 44.4766C21.6633 44.3132 21.7189 44.125 21.7165 43.9119C21.7189 43.6918 21.6621 43.4976 21.5461 43.3295C21.4301 43.1615 21.262 43.0301 21.0418 42.9354C20.824 42.8407 20.5612 42.7933 20.2535 42.7933H19.6107V41.7777H20.2535C20.5068 41.7777 20.7281 41.7339 20.9175 41.6463C21.1093 41.5587 21.2596 41.4356 21.3685 41.277C21.4774 41.116 21.5307 40.9302 21.5283 40.7195C21.5307 40.5135 21.4845 40.3348 21.3898 40.1832C21.2975 40.0294 21.1661 39.9098 20.9957 39.8246C20.8276 39.7393 20.6299 39.6967 20.4026 39.6967C20.1801 39.6967 19.9741 39.737 19.7847 39.8175C19.5953 39.898 19.4426 40.0128 19.3266 40.1619C19.2106 40.3087 19.1491 40.4839 19.142 40.6875H17.8742C17.8837 40.2803 18.0009 39.9228 18.2258 39.6151C18.4531 39.3049 18.7561 39.0634 19.1349 38.8906C19.5137 38.7154 19.9386 38.6278 20.4097 38.6278C20.8951 38.6278 21.3165 38.719 21.6739 38.9013C22.0338 39.0812 22.312 39.3239 22.5085 39.6293C22.7049 39.9347 22.8032 40.272 22.8032 40.6413C22.8056 41.0509 22.6848 41.3942 22.441 41.6712C22.1995 41.9482 21.8823 42.1293 21.4893 42.2145V42.2713C22.0006 42.3423 22.3924 42.5317 22.6647 42.8395C22.9393 43.1449 23.0754 43.5249 23.0731 43.9794C23.0731 44.3866 22.9571 44.7512 22.7251 45.0732C22.4954 45.3928 22.1782 45.6437 21.7734 45.826C21.3709 46.0083 20.9093 46.0994 20.3884 46.0994ZM27.5554 46.0994C27.2074 46.0971 26.8676 46.0367 26.5362 45.9183C26.2047 45.7976 25.9065 45.6023 25.6413 45.3324C25.3761 45.0601 25.1654 44.6991 25.0092 44.2493C24.8529 43.7971 24.776 43.2372 24.7784 42.5696C24.7784 41.947 24.8447 41.3918 24.9772 40.9041C25.1098 40.4164 25.3004 40.0045 25.549 39.6683C25.7975 39.3298 26.097 39.0717 26.4474 38.8942C26.8002 38.7166 27.1943 38.6278 27.6299 38.6278C28.0868 38.6278 28.4917 38.7178 28.8444 38.8977C29.1995 39.0777 29.486 39.3239 29.7038 39.6364C29.9216 39.9465 30.0565 40.2969 30.1086 40.6875H28.8125C28.7462 40.4081 28.61 40.1856 28.4041 40.0199C28.2005 39.8518 27.9424 39.7678 27.6299 39.7678C27.1257 39.7678 26.7374 39.9867 26.4652 40.4247C26.1953 40.8627 26.0591 41.464 26.0568 42.2287H26.1065C26.2225 42.0204 26.3728 41.8416 26.5575 41.6925C26.7422 41.5433 26.9505 41.4285 27.1825 41.348C27.4169 41.2652 27.6643 41.2237 27.9247 41.2237C28.3508 41.2237 28.7332 41.3255 29.0717 41.5291C29.4126 41.7327 29.6825 42.0133 29.8814 42.3707C30.0802 42.7259 30.1785 43.133 30.1761 43.5923C30.1785 44.0705 30.0696 44.5002 29.8494 44.8814C29.6292 45.2602 29.3226 45.5585 28.9297 45.7763C28.5367 45.9941 28.0786 46.1018 27.5554 46.0994ZM27.5483 45.0341C27.8063 45.0341 28.0371 44.9714 28.2407 44.8459C28.4443 44.7204 28.6053 44.5511 28.7237 44.3381C28.8421 44.125 28.9001 43.8859 28.8977 43.6207C28.9001 43.3603 28.8432 43.1248 28.7272 42.9141C28.6136 42.7034 28.4562 42.5365 28.2549 42.4134C28.0537 42.2902 27.8241 42.2287 27.566 42.2287C27.3743 42.2287 27.1955 42.2654 27.0298 42.3388C26.8641 42.4122 26.7197 42.514 26.5966 42.6442C26.4734 42.772 26.3764 42.9212 26.3054 43.0916C26.2367 43.2597 26.2012 43.4396 26.1988 43.6314C26.2012 43.8847 26.2604 44.1179 26.3764 44.331C26.4924 44.544 26.6522 44.7145 26.8558 44.8423C27.0594 44.9702 27.2902 45.0341 27.5483 45.0341ZM34.6646 46.1385C34.0798 46.1385 33.5779 45.9905 33.1589 45.6946C32.7422 45.3963 32.4215 44.9666 32.1966 44.4055C31.974 43.8421 31.8627 43.1638 31.8627 42.3707C31.8651 41.5777 31.9776 40.9029 32.2001 40.3466C32.425 39.7879 32.7458 39.3617 33.1625 39.0682C33.5815 38.7746 34.0822 38.6278 34.6646 38.6278C35.247 38.6278 35.7477 38.7746 36.1667 39.0682C36.5858 39.3617 36.9065 39.7879 37.1291 40.3466C37.354 40.9053 37.4664 41.58 37.4664 42.3707C37.4664 43.1662 37.354 43.8456 37.1291 44.4091C36.9065 44.9702 36.5858 45.3987 36.1667 45.6946C35.7501 45.9905 35.2493 46.1385 34.6646 46.1385ZM34.6646 45.027C35.1191 45.027 35.4778 44.8033 35.7406 44.3558C36.0057 43.906 36.1383 43.2443 36.1383 42.3707C36.1383 41.7931 36.0779 41.3078 35.9572 40.9148C35.8365 40.5218 35.666 40.2259 35.4458 40.027C35.2257 39.8258 34.9653 39.7251 34.6646 39.7251C34.2124 39.7251 33.8549 39.95 33.5922 40.3999C33.3294 40.8473 33.1968 41.5043 33.1944 42.3707C33.1921 42.9508 33.2501 43.4384 33.3684 43.8338C33.4892 44.2292 33.6596 44.5275 33.8798 44.7287C34.1 44.9276 34.3616 45.027 34.6646 45.027Z" fill="black"/>
<path d="M68 35.2337V20.6882H77.3182V22.8971H70.6349V26.8459H76.679V29.0547H70.6349V35.2337H68Z" fill="black"/>
<path d="M80.7761 20.6882V35.2337H78.2051V20.6882H80.7761Z" fill="black"/>
<path d="M86.8495 35.4468C85.7558 35.4468 84.8112 35.2195 84.0157 34.7649C83.225 34.3057 82.6165 33.657 82.1904 32.8189C81.7643 31.9761 81.5512 30.9842 81.5512 29.8431C81.5512 28.7209 81.7643 27.7361 82.1904 26.8885C82.6213 26.0363 83.2226 25.3734 83.9944 24.8999C84.7662 24.4217 85.6729 24.1826 86.7146 24.1826C87.3869 24.1826 88.0214 24.2915 88.618 24.5093C89.2193 24.7223 89.7496 25.0538 90.2089 25.5036C90.6729 25.9534 91.0375 26.5263 91.3026 27.2223C91.5678 27.9136 91.7004 28.7375 91.7004 29.6939V30.4823H82.7586V28.7493H89.2359C89.2311 28.2569 89.1246 27.8189 88.9163 27.4354C88.7079 27.0471 88.4167 26.7417 88.0427 26.5192C87.6734 26.2967 87.2425 26.1854 86.7501 26.1854C86.2245 26.1854 85.7629 26.3132 85.3651 26.5689C84.9674 26.8199 84.6573 27.1513 84.4347 27.5632C84.2169 27.9704 84.1057 28.4179 84.1009 28.9056V30.4184C84.1009 31.0528 84.2169 31.5973 84.4489 32.0519C84.6809 32.5017 85.0053 32.8473 85.4219 33.0888C85.8386 33.3256 86.3263 33.4439 86.885 33.4439C87.2591 33.4439 87.5976 33.3918 87.9006 33.2877C88.2037 33.1788 88.4665 33.0202 88.689 32.8118C88.9115 32.6035 89.0796 32.3454 89.1933 32.0377L91.5938 32.3076C91.4423 32.942 91.1535 33.496 90.7273 33.9695C90.3059 34.4382 89.7662 34.8028 89.108 35.0632C88.4499 35.3189 87.697 35.4468 86.8495 35.4468Z" fill="black"/>
<path d="M97.305 35.4468C96.2112 35.4468 95.2666 35.2195 94.4712 34.7649C93.6804 34.3057 93.072 33.657 92.6459 32.8189C92.2197 31.9761 92.0067 30.9842 92.0067 29.8431C92.0067 28.7209 92.2197 27.7361 92.6459 26.8885C93.0768 26.0363 93.6781 25.3734 94.4499 24.8999C95.2216 24.4217 96.1284 24.1826 97.17 24.1826C97.8424 24.1826 98.4768 24.2915 99.0734 24.5093C99.6748 24.7223 100.205 25.0538 100.664 25.5036C101.128 25.9534 101.493 26.5263 101.758 27.2223C102.023 27.9136 102.156 28.7375 102.156 29.6939V30.4823H93.2141V28.7493H99.6913C99.6866 28.2569 99.5801 27.8189 99.3717 27.4354C99.1634 27.0471 98.8722 26.7417 98.4982 26.5192C98.1288 26.2967 97.698 26.1854 97.2055 26.1854C96.68 26.1854 96.2183 26.3132 95.8206 26.5689C95.4229 26.8199 95.1127 27.1513 94.8902 27.5632C94.6724 27.9704 94.5611 28.4179 94.5564 28.9056V30.4184C94.5564 31.0528 94.6724 31.5973 94.9044 32.0519C95.1364 32.5017 95.4607 32.8473 95.8774 33.0888C96.2941 33.3256 96.7818 33.4439 97.3405 33.4439C97.7145 33.4439 98.0531 33.3918 98.3561 33.2877C98.6591 33.1788 98.9219 33.0202 99.1445 32.8118C99.367 32.6035 99.5351 32.3454 99.6487 32.0377L102.049 32.3076C101.898 32.942 101.609 33.496 101.183 33.9695C100.761 34.4382 100.222 34.8028 99.5635 35.0632C98.9053 35.3189 98.1525 35.4468 97.305 35.4468Z" fill="black"/>
<path d="M108.378 24.3246V26.3132H102.107V24.3246H108.378ZM103.655 21.711H106.226V31.9524C106.226 32.2981 106.278 32.5632 106.383 32.7479C106.492 32.9278 106.634 33.0509 106.809 33.1172C106.984 33.1835 107.178 33.2167 107.391 33.2167C107.552 33.2167 107.699 33.2048 107.831 33.1811C107.969 33.1575 108.073 33.1362 108.144 33.1172L108.577 35.1272C108.44 35.1745 108.243 35.2266 107.988 35.2834C107.737 35.3402 107.429 35.3734 107.064 35.3828C106.42 35.4018 105.84 35.3047 105.324 35.0917C104.808 34.8738 104.399 34.5377 104.096 34.0831C103.797 33.6286 103.651 33.0604 103.655 32.3786V21.711Z" fill="black"/>
<path d="M118.987 25.3331C118.868 24.9496 118.705 24.6063 118.496 24.3033C118.293 23.9955 118.047 23.7328 117.758 23.5149C117.474 23.2971 117.147 23.1338 116.778 23.0249C116.408 22.9113 116.006 22.8544 115.57 22.8544C114.789 22.8544 114.093 23.0509 113.482 23.4439C112.871 23.8369 112.391 24.4146 112.04 25.1769C111.695 25.9345 111.522 26.8578 111.522 27.9468C111.522 29.0453 111.695 29.9756 112.04 30.738C112.386 31.5003 112.867 32.0803 113.482 32.478C114.098 32.871 114.813 33.0675 115.627 33.0675C116.366 33.0675 117.005 32.9255 117.545 32.6414C118.089 32.3573 118.508 31.9548 118.802 31.434C119.095 30.9084 119.242 30.2929 119.242 29.5874L119.839 29.6797H115.89V27.6201H121.792V29.3672C121.792 30.6125 121.527 31.6897 120.996 32.5988C120.466 33.5078 119.737 34.2086 118.809 34.701C117.881 35.1887 116.816 35.4326 115.613 35.4326C114.273 35.4326 113.096 35.1319 112.083 34.5306C111.075 33.9245 110.286 33.0651 109.718 31.9524C109.155 30.835 108.873 29.5093 108.873 27.9752C108.873 26.8009 109.039 25.7522 109.37 24.8289C109.706 23.9056 110.175 23.122 110.776 22.478C111.378 21.8293 112.083 21.3369 112.893 21.0007C113.702 20.6598 114.583 20.4894 115.535 20.4894C116.34 20.4894 117.09 20.6078 117.786 20.8445C118.482 21.0765 119.1 21.4079 119.64 21.8388C120.184 22.2697 120.632 22.781 120.982 23.3729C121.333 23.9648 121.562 24.6182 121.671 25.3331H118.987Z" fill="black"/>
<path d="M129.779 30.6456V24.3246H132.35V35.2337H129.857V33.2948H129.744C129.498 33.9056 129.093 34.4051 128.529 34.7934C127.971 35.1816 127.282 35.3757 126.463 35.3757C125.748 35.3757 125.116 35.2171 124.566 34.8999C124.022 34.5779 123.596 34.1115 123.288 33.5007C122.98 32.8852 122.826 32.1418 122.826 31.2706V24.3246H125.397V30.8729C125.397 31.5642 125.587 32.1134 125.965 32.5206C126.344 32.9278 126.841 33.1314 127.457 33.1314C127.836 33.1314 128.203 33.0391 128.558 32.8544C128.913 32.6698 129.204 32.3952 129.431 32.0306C129.663 31.6613 129.779 31.1996 129.779 30.6456Z" fill="black"/>
<path d="M136.733 35.4539C136.042 35.4539 135.419 35.3308 134.865 35.0846C134.316 34.8336 133.881 34.4643 133.559 33.9766C133.241 33.4889 133.083 32.8876 133.083 32.1726C133.083 31.5571 133.196 31.0481 133.424 30.6456C133.651 30.2432 133.961 29.9212 134.354 29.6797C134.747 29.4382 135.19 29.256 135.682 29.1328C136.179 29.005 136.693 28.9127 137.223 28.8559C137.863 28.7896 138.381 28.7304 138.779 28.6783C139.177 28.6215 139.465 28.5363 139.645 28.4226C139.83 28.3042 139.922 28.122 139.922 27.8757V27.8331C139.922 27.2981 139.764 26.8838 139.446 26.5902C139.129 26.2967 138.672 26.1499 138.076 26.1499C137.446 26.1499 136.946 26.2872 136.577 26.5618C136.213 26.8364 135.966 27.1608 135.838 27.5348L133.438 27.1939C133.627 26.531 133.94 25.9771 134.375 25.532C134.811 25.0822 135.344 24.746 135.973 24.5235C136.603 24.2962 137.299 24.1826 138.062 24.1826C138.587 24.1826 139.11 24.2441 139.631 24.3672C140.152 24.4903 140.628 24.6939 141.059 24.978C141.49 25.2574 141.835 25.6385 142.096 26.1215C142.361 26.6044 142.493 27.2081 142.493 27.9326V35.2337H140.022V33.7351H139.937C139.78 34.0381 139.56 34.3222 139.276 34.5874C138.997 34.8478 138.644 35.0585 138.218 35.2195C137.796 35.3757 137.302 35.4539 136.733 35.4539ZM137.401 33.5647C137.917 33.5647 138.365 33.4629 138.743 33.2593C139.122 33.0509 139.413 32.7763 139.617 32.4354C139.825 32.0945 139.929 31.7228 139.929 31.3203V30.0348C139.849 30.1011 139.712 30.1627 139.517 30.2195C139.328 30.2763 139.115 30.326 138.878 30.3686C138.642 30.4113 138.407 30.4491 138.175 30.4823C137.943 30.5154 137.742 30.5438 137.571 30.5675C137.188 30.6196 136.845 30.7048 136.542 30.8232C136.239 30.9416 135.999 31.1073 135.824 31.3203C135.649 31.5287 135.562 31.7986 135.562 32.13C135.562 32.6035 135.734 32.961 136.08 33.2024C136.426 33.4439 136.866 33.5647 137.401 33.5647Z" fill="black"/>
<path d="M143.679 35.2337V24.3246H146.171V26.1428H146.285C146.484 25.5131 146.825 25.0277 147.308 24.6868C147.796 24.3412 148.352 24.1684 148.977 24.1684C149.119 24.1684 149.278 24.1755 149.453 24.1897C149.633 24.1991 149.782 24.2157 149.9 24.2394V26.6044C149.791 26.5666 149.618 26.5334 149.382 26.505C149.15 26.4719 148.925 26.4553 148.707 26.4553C148.238 26.4553 147.817 26.5571 147.443 26.7607C147.073 26.9596 146.782 27.2365 146.569 27.5917C146.356 27.9468 146.25 28.3563 146.25 28.8203V35.2337H143.679Z" fill="black"/>
<path d="M153.807 35.4255C152.95 35.4255 152.183 35.2053 151.506 34.7649C150.829 34.3246 150.294 33.6854 149.901 32.8473C149.508 32.0093 149.312 30.9913 149.312 29.7934C149.312 28.5812 149.51 27.5585 149.908 26.7252C150.311 25.8871 150.853 25.255 151.535 24.8289C152.216 24.398 152.976 24.1826 153.814 24.1826C154.454 24.1826 154.979 24.2915 155.391 24.5093C155.803 24.7223 156.13 24.9804 156.371 25.2834C156.613 25.5817 156.8 25.8634 156.932 26.1286H157.039V20.6882H159.617V35.2337H157.089V33.5149H156.932C156.8 33.7801 156.608 34.0618 156.357 34.3601C156.106 34.6537 155.775 34.9046 155.363 35.113C154.951 35.3213 154.432 35.4255 153.807 35.4255ZM154.525 33.3161C155.069 33.3161 155.533 33.1693 155.917 32.8757C156.3 32.5774 156.591 32.1631 156.79 31.6328C156.989 31.1025 157.089 30.4846 157.089 29.7792C157.089 29.0737 156.989 28.4605 156.79 27.9397C156.596 27.4188 156.307 27.014 155.924 26.7252C155.545 26.4363 155.079 26.2919 154.525 26.2919C153.952 26.2919 153.474 26.4411 153.09 26.7394C152.706 27.0377 152.418 27.4496 152.224 27.9752C152.029 28.5007 151.932 29.1021 151.932 29.7792C151.932 30.461 152.029 31.0694 152.224 31.6044C152.422 32.1347 152.714 32.5538 153.097 32.8615C153.485 33.1646 153.961 33.3161 154.525 33.3161Z" fill="black"/>
<path d="M169.709 35.4326C168.687 35.4326 167.778 35.2574 166.982 34.907C166.191 34.5566 165.566 34.0689 165.107 33.4439C164.648 32.8189 164.404 32.0969 164.376 31.2777H167.046C167.07 31.6707 167.2 32.014 167.437 32.3076C167.673 32.5964 167.988 32.8213 168.381 32.9823C168.774 33.1433 169.215 33.2238 169.702 33.2238C170.223 33.2238 170.685 33.1338 171.087 32.9539C171.49 32.7692 171.805 32.5135 172.032 32.1868C172.259 31.8601 172.37 31.4837 172.366 31.0576C172.37 30.6172 172.257 30.229 172.025 29.8928C171.793 29.5566 171.457 29.2938 171.016 29.1044C170.581 28.915 170.055 28.8203 169.439 28.8203H168.154V26.7891H169.439C169.946 26.7891 170.389 26.7015 170.768 26.5263C171.151 26.3511 171.452 26.1049 171.67 25.7877C171.887 25.4657 171.994 25.094 171.989 24.6726C171.994 24.2607 171.902 23.9032 171.712 23.6002C171.528 23.2924 171.265 23.0533 170.924 22.8828C170.588 22.7124 170.192 22.6272 169.738 22.6272C169.293 22.6272 168.881 22.7077 168.502 22.8686C168.123 23.0296 167.818 23.2593 167.586 23.5576C167.354 23.8511 167.231 24.2015 167.216 24.6087H164.681C164.7 23.7943 164.934 23.0793 165.384 22.4638C165.839 21.8435 166.445 21.3606 167.202 21.0149C167.96 20.6646 168.81 20.4894 169.752 20.4894C170.723 20.4894 171.565 20.6717 172.28 21.0363C173 21.3961 173.556 21.8814 173.949 22.4922C174.342 23.103 174.539 23.7777 174.539 24.5164C174.544 25.3355 174.302 26.0221 173.814 26.576C173.332 27.13 172.697 27.4922 171.911 27.6627V27.7763C172.934 27.9184 173.717 28.2971 174.262 28.9127C174.811 29.5235 175.083 30.2834 175.079 31.1925C175.079 32.0069 174.847 32.7361 174.383 33.38C173.923 34.0192 173.289 34.5211 172.479 34.8857C171.674 35.2503 170.751 35.4326 169.709 35.4326Z" fill="black"/>
<path d="M181.443 35.4326C180.747 35.4278 180.068 35.3071 179.405 35.0703C178.742 34.8289 178.145 34.4382 177.615 33.8985C177.085 33.354 176.663 32.6319 176.351 31.7323C176.038 30.8279 175.885 29.7081 175.889 28.3729C175.889 27.1276 176.022 26.0173 176.287 25.0419C176.552 24.0666 176.933 23.2427 177.43 22.5703C177.928 21.8933 178.527 21.3772 179.227 21.022C179.933 20.6669 180.721 20.4894 181.592 20.4894C182.506 20.4894 183.316 20.6693 184.021 21.0292C184.732 21.389 185.305 21.8814 185.74 22.5064C186.176 23.1267 186.446 23.8274 186.55 24.6087H183.957C183.825 24.05 183.553 23.6049 183.141 23.2735C182.733 22.9373 182.217 22.7692 181.592 22.7692C180.584 22.7692 179.807 23.2072 179.263 24.0831C178.723 24.9591 178.451 26.1617 178.446 27.6911H178.546C178.778 27.2744 179.078 26.9169 179.448 26.6186C179.817 26.3203 180.233 26.0907 180.698 25.9297C181.166 25.764 181.661 25.6811 182.182 25.6811C183.034 25.6811 183.799 25.8847 184.476 26.2919C185.158 26.6991 185.698 27.2602 186.095 27.9752C186.493 28.6854 186.689 29.4998 186.685 30.4184C186.689 31.3748 186.472 32.2342 186.031 32.9965C185.591 33.7541 184.978 34.3506 184.192 34.7863C183.406 35.2219 182.49 35.4373 181.443 35.4326ZM181.429 33.3019C181.945 33.3019 182.407 33.1764 182.814 32.9255C183.221 32.6745 183.543 32.336 183.78 31.9098C184.017 31.4837 184.133 31.0055 184.128 30.4752C184.133 29.9543 184.019 29.4832 183.787 29.0618C183.56 28.6404 183.245 28.3066 182.842 28.0604C182.44 27.8142 181.981 27.6911 181.465 27.6911C181.081 27.6911 180.724 27.7645 180.392 27.9113C180.061 28.058 179.772 28.2616 179.526 28.5221C179.279 28.7777 179.085 29.076 178.943 29.4169C178.806 29.7531 178.735 30.113 178.73 30.4965C178.735 31.0031 178.853 31.4695 179.085 31.8956C179.317 32.3218 179.637 32.6627 180.044 32.9184C180.451 33.174 180.913 33.3019 181.429 33.3019Z" fill="black"/>
<path d="M193.062 35.5107C191.892 35.5107 190.888 35.2148 190.05 34.6229C189.217 34.0263 188.575 33.1669 188.126 32.0448C187.681 30.9179 187.458 29.5613 187.458 27.9752C187.463 26.389 187.688 25.0396 188.133 23.9269C188.583 22.8095 189.224 21.9572 190.057 21.3701C190.896 20.7829 191.897 20.4894 193.062 20.4894C194.226 20.4894 195.228 20.7829 196.066 21.3701C196.904 21.9572 197.546 22.8095 197.991 23.9269C198.441 25.0443 198.665 26.3937 198.665 27.9752C198.665 29.5661 198.441 30.925 197.991 32.0519C197.546 33.174 196.904 34.031 196.066 34.6229C195.233 35.2148 194.231 35.5107 193.062 35.5107ZM193.062 33.2877C193.971 33.2877 194.688 32.8402 195.214 31.9453C195.744 31.0457 196.009 29.7223 196.009 27.9752C196.009 26.8199 195.888 25.8492 195.647 25.0632C195.405 24.2773 195.065 23.6854 194.624 23.2877C194.184 22.8852 193.663 22.684 193.062 22.684C192.157 22.684 191.442 23.1338 190.917 24.0334C190.391 24.9283 190.126 26.2422 190.121 27.9752C190.117 29.1352 190.233 30.1106 190.469 30.9013C190.711 31.692 191.052 32.2886 191.492 32.6911C191.932 33.0888 192.456 33.2877 193.062 33.2877Z" fill="black"/>
</svg>
